<svg width="17" height="17" viewBox="0 0 17 17" fill="none" xmlns="http://www.w3.org/2000/svg">
<path d="M12.4223 9.49167L11.2128 10.8375C11.0961 10.9674 10.9475 11.0323 10.7671 11.0323C10.5868 11.0323 10.4382 10.9674 10.3215 10.8375C10.2048 10.7076 10.1464 10.5424 10.1464 10.3417C10.1464 10.141 10.2048 9.9757 10.3215 9.84584L11.5311 8.5L10.3215 7.15417C10.2048 7.02431 10.1464 6.85903 10.1464 6.65834C10.1464 6.45764 10.2048 6.29236 10.3215 6.1625C10.4382 6.03264 10.5868 5.96771 10.7671 5.96771C10.9475 5.96771 11.0961 6.03264 11.2128 6.1625L12.4223 7.50834L13.6319 6.1625C13.7486 6.03264 13.8972 5.96771 14.0776 5.96771C14.2579 5.96771 14.4065 6.03264 14.5232 6.1625C14.6399 6.29236 14.6983 6.45764 14.6983 6.65834C14.6983 6.85903 14.6399 7.02431 14.5232 7.15417L13.3136 8.5L14.5232 9.84584C14.6399 9.9757 14.6983 10.141 14.6983 10.3417C14.6983 10.5424 14.6399 10.7076 14.5232 10.8375C14.4065 10.9674 14.2579 11.0323 14.0776 11.0323C13.8972 11.0323 13.7486 10.9674 13.6319 10.8375L12.4223 9.49167ZM5.41953 10.625H3.50967C3.32929 10.625 3.17809 10.5571 3.05608 10.4214C2.93406 10.2856 2.87305 10.1174 2.87305 9.91667V7.08334C2.87305 6.88264 2.93406 6.71441 3.05608 6.57865C3.17809 6.44288 3.32929 6.375 3.50967 6.375H5.41953L7.52037 4.0375C7.72197 3.8132 7.95274 3.76302 8.2127 3.88698C8.47265 4.01094 8.60262 4.23229 8.60262 4.55104V12.449C8.60262 12.7677 8.47265 12.9891 8.2127 13.113C7.95274 13.237 7.72197 13.1868 7.52037 12.9625L5.41953 10.625Z" fill="white"/>
</svg>
