<svg width="20" height="18" viewBox="0 0 20 18" fill="none" xmlns="http://www.w3.org/2000/svg">
<path d="M2.20529 18C1.59883 18 1.07949 17.8043 0.647252 17.413C0.215751 17.021 0 16.55 0 16V2C0 1.45 0.215751 0.979 0.647252 0.587C1.07949 0.195667 1.59883 0 2.20529 0H8.82115C9.13357 0 9.39563 0.0956666 9.60734 0.287C9.81831 0.479 9.92379 0.716667 9.92379 1C9.92379 1.28333 9.81831 1.52067 9.60734 1.712C9.39563 1.904 9.13357 2 8.82115 2H2.20529V16H17.6423V10C17.6423 9.71667 17.7482 9.479 17.9599 9.287C18.1708 9.09567 18.4325 9 18.7449 9C19.0574 9 19.3191 9.09567 19.53 9.287C19.7417 9.479 19.8476 9.71667 19.8476 10V16C19.8476 16.55 19.6318 17.021 19.2003 17.413C18.7681 17.8043 18.2488 18 17.6423 18H2.20529ZM6.61586 12C6.41371 11.8167 6.31264 11.5833 6.31264 11.3C6.31264 11.0167 6.41371 10.7833 6.61586 10.6L16.0986 2H13.2317C12.9193 2 12.6576 1.904 12.4466 1.712C12.2349 1.52067 12.1291 1.28333 12.1291 1C12.1291 0.716667 12.2349 0.479 12.4466 0.287C12.6576 0.0956666 12.9193 0 13.2317 0H18.7449C19.0574 0 19.3191 0.0956666 19.53 0.287C19.7417 0.479 19.8476 0.716667 19.8476 1V6C19.8476 6.28333 19.7417 6.52067 19.53 6.712C19.3191 6.904 19.0574 7 18.7449 7C18.4325 7 18.1708 6.904 17.9599 6.712C17.7482 6.52067 17.6423 6.28333 17.6423 6V3.4L8.132 12.025C7.92985 12.2083 7.68175 12.3 7.38771 12.3C7.09368 12.3 6.83639 12.2 6.61586 12Z" fill="#C6C6C6"/>
</svg>
