<svg width="15" height="19" viewBox="0 0 15 19" fill="none" xmlns="http://www.w3.org/2000/svg">
<path d="M13.9957 7.89729C14.1823 7.65567 14.5333 7.60854 14.7789 7.79151C15.0249 7.97486 15.0729 8.31966 14.8862 8.56091L8.16421 17.2447C7.40628 18.2209 6.3117 18.8047 5.15932 18.9587C4.02469 19.1105 2.83036 18.8459 1.84271 18.1281C1.80804 18.1074 1.77563 18.0833 1.74598 18.0561C0.776845 17.3123 0.196495 16.2508 0.0419621 15.1347C-0.112571 14.0194 0.157579 12.8462 0.887928 11.8764C0.907953 11.8437 0.931756 11.8129 0.958204 11.7847L9.04267 1.34165C9.66194 0.627923 10.3488 0.179943 11.1128 0.0437302C11.884 -0.093967 12.6974 0.0901241 13.5593 0.644253L13.5959 0.669863L13.6058 0.677286L13.6069 0.678028C14.018 0.989795 14.3251 1.33719 14.5356 1.71131C14.7615 2.11401 14.8741 2.5464 14.8821 2.99847C14.8923 3.60678 14.7453 4.11303 14.5091 4.57809C14.2919 5.00677 13.9964 5.39499 13.6809 5.80252L6.19231 15.4773C5.87569 15.8863 5.41851 16.1309 4.93791 16.1951C4.47846 16.2567 3.99408 16.1528 3.58867 15.8704C3.5524 15.8492 3.51839 15.824 3.48703 15.7943C3.10051 15.4855 2.8689 15.0538 2.8058 14.601C2.74119 14.13 2.8587 13.6327 3.17457 13.2244L9.64456 4.86573C9.83083 4.62448 10.1818 4.57734 10.4278 4.76032C10.6734 4.94367 10.7214 5.28847 10.5351 5.52972L4.06512 13.8884C3.93665 14.0547 3.88905 14.2596 3.91587 14.4548C3.9427 14.6485 4.04434 14.8323 4.21285 14.9581L4.21474 14.9599C4.38325 15.0846 4.59106 15.131 4.78904 15.1047C4.98665 15.0783 5.17368 14.9789 5.30176 14.8133L12.7904 5.13853C13.0647 4.78408 13.322 4.44596 13.5045 4.08668C13.6681 3.76452 13.7697 3.41935 13.7633 3.01554C13.7588 2.74645 13.69 2.48665 13.5529 2.24169C13.4183 2.0023 13.2151 1.77367 12.937 1.561C12.3321 1.17389 11.7922 1.0399 11.31 1.12564C10.8181 1.2136 10.3466 1.53502 9.89317 2.05611L1.81513 12.4925C1.2446 13.2293 1.03339 14.1304 1.15203 14.9881C1.2684 15.8288 1.70291 16.6271 2.42797 17.1861C2.45631 17.2032 2.48351 17.2232 2.50883 17.2462C3.25202 17.7844 4.15277 17.983 5.01045 17.8683C5.867 17.754 6.68009 17.326 7.24873 16.613C7.26686 16.5848 7.28764 16.5581 7.31107 16.5325L13.9957 7.89729Z" fill="#BFBFBF"/>
</svg>
