<svg width="20" height="20" viewBox="0 0 20 20" fill="none" xmlns="http://www.w3.org/2000/svg">
<path d="M10 12.9891L3.65902 19.3478C3.25815 19.7464 2.74795 19.9457 2.12842 19.9457C1.50889 19.9457 0.998696 19.7464 0.597826 19.3478C0.199275 18.9493 0 18.442 0 17.8261C0 17.2101 0.199275 16.7029 0.597826 16.3043L6.95652 9.94565L0.597826 3.65913C0.199275 3.25822 0 2.74801 0 2.12848C0 1.50891 0.199275 0.998696 0.597826 0.597826C0.996377 0.199275 1.50362 0 2.11957 0C2.73551 0 3.24275 0.199275 3.6413 0.597826L10 6.95652L16.2865 0.597826C16.6874 0.199275 17.1976 0 17.8172 0C18.4367 0 18.947 0.199275 19.3478 0.597826C19.7826 1.03261 20 1.54891 20 2.14674C20 2.74457 19.7826 3.24275 19.3478 3.6413L12.9891 9.94565L19.3478 16.2866C19.7464 16.6875 19.9457 17.1977 19.9457 17.8172C19.9457 18.4368 19.7464 18.947 19.3478 19.3478C18.913 19.7826 18.3967 20 17.7989 20C17.2011 20 16.7029 19.7826 16.3043 19.3478L10 12.9891Z" fill="white"/>
</svg>
