<svg width="31" height="24" viewBox="0 0 31 24" fill="none" xmlns="http://www.w3.org/2000/svg">
<path fill-rule="evenodd" clip-rule="evenodd" d="M30.5249 0V20.0557H20.2575V22.0748H23.2581V24H7.72783V22.0748H10.9417V20.0557H0.524902V0H30.5249ZM4.0833 14.8438H24.1722V15.7335H4.0833V14.8438ZM4.0833 12.4688H16.9019V13.3585H4.0833V12.4688ZM23.6882 7.50074L27.0896 7.51255C27.0866 8.45125 26.7216 9.3498 26.0753 10.0087C25.9228 10.1637 25.7563 10.304 25.5778 10.4278L23.6882 7.50074ZM23.3396 6.80232L23.1579 3.03985C23.1544 2.96546 23.2101 2.90229 23.2815 2.89875C23.3026 2.89757 23.3272 2.89639 23.3548 2.8958C23.3776 2.89462 23.4022 2.89462 23.428 2.89403C24.4271 2.88281 25.3435 3.27482 26.0284 3.92719C26.7134 4.57955 27.1663 5.49287 27.2378 6.52426C27.2425 6.59864 27.1886 6.66299 27.1165 6.66831L23.479 6.93752C23.4075 6.94224 23.3448 6.88675 23.3401 6.81236C23.3396 6.80882 23.3396 6.80586 23.3396 6.80232ZM23.4245 3.16324L23.5933 6.65827L26.9659 6.40913C26.871 5.50408 26.4597 4.70412 25.8521 4.12555C25.214 3.51747 24.3603 3.15261 23.4304 3.16324H23.4245ZM22.9323 7.33957L24.7558 10.6079C24.2015 10.9391 23.5722 11.1138 22.9323 11.1138C20.9179 11.1138 19.2849 9.4236 19.2849 7.33957C19.2849 5.4663 20.612 3.87701 22.4026 3.60484L22.9323 7.33957ZM12.5226 3.30257L12.2319 2.93004C12.1862 2.86569 12.1722 2.80488 12.1909 2.74879C12.2401 2.59766 12.4171 2.61242 12.5396 2.62068C12.8876 2.64607 13.7085 2.65374 13.8878 2.66083C14.019 2.67027 14.0958 2.76946 14.0735 2.89993C14.0372 3.08236 13.8702 3.96084 13.8104 4.2944C13.7894 4.41012 13.7548 4.56066 13.6101 4.57188C13.5515 4.5766 13.4964 4.54826 13.4448 4.48864L13.1548 4.11552L13.02 3.94313L11.2077 5.12565C11.1849 5.58556 10.8075 5.95159 10.3452 5.95159C9.86826 5.95159 9.48154 5.56194 9.48154 5.08137C9.48154 5.06189 9.48213 5.04241 9.4833 5.02352L8.48135 4.2944C8.33698 4.39633 8.16486 4.45077 7.98857 4.45026C7.73896 4.45026 7.51455 4.3434 7.35693 4.17278L5.67705 5.08019C5.68057 5.10971 5.68174 5.13982 5.68174 5.17052C5.68174 5.65109 5.29502 6.04074 4.81865 6.04074C4.3417 6.04074 3.95498 5.65109 3.95498 5.17052C3.95498 4.68995 4.3417 4.3003 4.81865 4.3003C4.9915 4.3003 5.15205 4.35167 5.2874 4.43963L7.13604 3.44131C7.20166 3.02686 7.5585 2.70983 7.98857 2.70983C8.46553 2.70983 8.85225 3.09948 8.85225 3.58005C8.85225 3.59894 8.85166 3.61842 8.85049 3.6379L9.85244 4.36702C9.99697 4.26543 10.169 4.21102 10.3452 4.21116C10.562 4.21116 10.7601 4.29204 10.9118 4.42487L12.5589 3.3498L12.5226 3.30257ZM12.9198 5.54777H14.1104C14.179 5.54777 14.2353 5.60445 14.2353 5.67352V10.3345C14.2353 10.4036 14.179 10.4603 14.1104 10.4603H12.9198C12.8519 10.4603 12.795 10.4036 12.795 10.3345V5.67352C12.795 5.60445 12.8513 5.54777 12.9198 5.54777ZM10.0212 7.14533H11.2118C11.2804 7.14533 11.3366 7.20201 11.3366 7.27108V10.3345C11.3366 10.4036 11.2804 10.4603 11.2118 10.4603H10.0212C9.95264 10.4603 9.89639 10.4036 9.89639 10.3345V7.27108C9.89639 7.20201 9.95264 7.14533 10.0212 7.14533ZM7.12197 5.54777H8.31318C8.38174 5.54777 8.4374 5.60445 8.4374 5.67352V10.3345C8.4374 10.4036 8.38115 10.4603 8.31318 10.4603H7.12197C7.054 10.4603 6.99775 10.4036 6.99775 10.3345V5.67352C6.99775 5.60445 7.05342 5.54777 7.12197 5.54777ZM4.22275 7.40274H5.41397C5.48252 7.40274 5.53818 7.46 5.53818 7.52849V10.3345C5.53818 10.4036 5.48193 10.4603 5.41397 10.4603H4.22275C4.15479 10.4603 4.09854 10.4036 4.09854 10.3345V7.52849C4.09854 7.45941 4.1542 7.40274 4.22275 7.40274ZM1.42021 17.4858H29.6255V0.902096H1.42021V17.4858Z" fill="#303042"/>
</svg>
