<svg width="12" height="15" viewBox="0 0 12 15" fill="none" xmlns="http://www.w3.org/2000/svg">
<path d="M4.31258 11.625C4.21258 11.625 4.12508 11.5875 4.05008 11.5125C3.97508 11.4375 3.93758 11.35 3.93758 11.25C3.93758 11.15 3.97508 11.0625 4.05008 10.9875C4.12508 10.9125 4.21258 10.875 4.31258 10.875C4.41258 10.875 4.50008 10.9125 4.57508 10.9875C4.65008 11.0625 4.68758 11.15 4.68758 11.25C4.68758 11.35 4.65008 11.4375 4.57508 11.5125C4.50008 11.5875 4.41258 11.625 4.31258 11.625ZM7.68758 11.625C7.58758 11.625 7.50008 11.5875 7.42508 11.5125C7.35008 11.4375 7.31258 11.35 7.31258 11.25C7.31258 11.15 7.35008 11.0625 7.42508 10.9875C7.50008 10.9125 7.58758 10.875 7.68758 10.875C7.78758 10.875 7.87508 10.9125 7.95008 10.9875C8.02508 11.0625 8.06258 11.15 8.06258 11.25C8.06258 11.35 8.02508 11.4375 7.95008 11.5125C7.87508 11.5875 7.78758 11.625 7.68758 11.625ZM1.50008 15C1.08758 15 0.734582 14.8533 0.441082 14.5597C0.147082 14.2657 8.18968e-05 13.9125 8.18968e-05 13.5V1.5C8.18968e-05 1.0875 0.147082 0.73425 0.441082 0.44025C0.734582 0.14675 1.08758 0 1.50008 0H6.88133C7.08133 0 7.27208 0.0375001 7.45358 0.1125C7.63458 0.1875 7.79383 0.29375 7.93133 0.43125L11.5688 4.06875C11.7063 4.20625 11.8126 4.3655 11.8876 4.5465C11.9626 4.728 12.0001 4.91875 12.0001 5.11875V13.5C12.0001 13.9125 11.8533 14.2657 11.5598 14.5597C11.2658 14.8533 10.9126 15 10.5001 15H1.50008ZM6.75008 4.5C6.75008 4.7125 6.82208 4.8905 6.96608 5.034C7.10958 5.178 7.28758 5.25 7.50008 5.25H10.5001L6.75008 1.5V4.5Z" fill="#C7C7C7"/>
</svg>
