<svg width="12" height="16" viewBox="0 0 12 16" fill="none" xmlns="http://www.w3.org/2000/svg">
<path fill-rule="evenodd" clip-rule="evenodd" d="M2.83442 4.37015H9.17731C9.2086 4.37015 9.23468 4.39619 9.23468 4.42744C9.23468 4.83763 9.23468 4.56417 9.23468 4.97306C9.23468 5.00431 9.2086 5.03036 9.17731 5.03036H2.83442C2.79661 5.03036 2.76532 4.9991 2.76532 4.96134C2.76532 4.55896 2.76532 4.84024 2.76532 4.43786C2.76532 4.4014 2.79661 4.37015 2.83442 4.37015ZM1.206 0.941483H2.22425V0.30341C2.22425 0.13673 2.39113 0 2.59583 0C2.80052 0 2.96741 0.13673 2.96741 0.30341V0.940181H4.58409V0.30341C4.58409 0.13673 4.75098 0 4.95437 0C5.15906 0 5.32594 0.13673 5.32594 0.30341V0.940181H6.94263V0.30341C6.94263 0.13673 7.10952 0 7.31421 0C7.5189 0 7.68579 0.13673 7.68579 0.30341V0.940181H9.30248V0.30341C9.30248 0.13673 9.46936 0 9.67405 0C9.87875 0 10.0456 0.13673 10.0456 0.30341V0.940181H10.794C11.4576 0.940181 12 1.48189 12 2.14471V14.7955C12 15.4583 11.4576 16 10.794 16H1.206C0.542373 16 0 15.4583 0 14.7955V2.14601C0 1.48319 0.542373 0.941483 1.206 0.941483ZM1.30248 1.96631H2.22425V2.41817C2.22425 2.58485 2.39113 2.72158 2.59583 2.72158C2.80052 2.72158 2.96741 2.58485 2.96741 2.41817V1.96631H4.58409V2.41817C4.58409 2.58485 4.75098 2.72158 4.95567 2.72158C5.16037 2.72158 5.32725 2.58485 5.32725 2.41817V1.96631H6.94394V2.41817C6.94394 2.58485 7.11082 2.72158 7.31552 2.72158C7.52021 2.72158 7.68709 2.58485 7.68709 2.41817V1.96631H9.30378V2.41817C9.30378 2.58485 9.47066 2.72158 9.67536 2.72158C9.88005 2.72158 10.0469 2.58485 10.0469 2.41817V1.96631H10.6988C10.8853 1.96631 11.0391 2.11996 11.0391 2.30618V14.6353C11.0391 14.8202 10.8853 14.9752 10.6988 14.9752H1.30248C1.11734 14.9752 0.96219 14.8228 0.96219 14.6353V2.30618C0.96219 2.11996 1.11604 1.96631 1.30248 1.96631ZM2.83442 13.6587H9.17731C9.2086 13.6587 9.23468 13.6326 9.23468 13.6014C9.23468 13.1912 9.23468 13.4646 9.23468 13.0557C9.23468 13.0245 9.2086 12.9985 9.17731 12.9985H2.83442C2.79661 12.9985 2.76532 13.0297 2.76532 13.0675C2.76532 13.423 2.76532 13.2355 2.76532 13.5909C2.76532 13.6274 2.79661 13.6587 2.83442 13.6587ZM2.83442 11.5022H9.17731C9.2086 11.5022 9.23468 11.4762 9.23468 11.4449C9.23468 11.0348 9.23468 11.3707 9.23468 10.9618C9.23468 10.9306 9.2086 10.9045 9.17731 10.9045H2.83442C2.79661 10.9045 2.76532 10.9358 2.76532 10.9735C2.76532 11.3759 2.76532 11.0321 2.76532 11.4345C2.76532 11.471 2.79661 11.5022 2.83442 11.5022ZM2.83442 9.34451H9.17731C9.2086 9.34451 9.23468 9.31847 9.23468 9.28721C9.23468 8.87702 9.23468 9.08798 9.23468 8.67909C9.23468 8.64784 9.2086 8.62179 9.17731 8.62179H2.83442C2.79661 8.62179 2.76532 8.65305 2.76532 8.69081C2.76532 9.09319 2.76532 8.87442 2.76532 9.2768C2.76532 9.31326 2.79661 9.34451 2.83442 9.34451ZM2.83442 7.18808H9.17731C9.2086 7.18808 9.23468 7.16204 9.23468 7.13079C9.23468 6.7206 9.23468 6.99406 9.23468 6.58517C9.23468 6.55392 9.2086 6.52787 9.17731 6.52787H2.83442C2.79661 6.52787 2.76532 6.55913 2.76532 6.59689C2.76532 6.99927 2.76532 6.71799 2.76532 7.12037C2.76532 7.15683 2.79661 7.18808 2.83442 7.18808Z" fill="#C7C7C7"/>
</svg>
