<svg width="24" height="18" viewBox="0 0 24 18" fill="none" xmlns="http://www.w3.org/2000/svg">
<path d="M6 18C4.34545 18 2.932 17.4271 1.75964 16.2812C0.586545 15.1353 0 13.7348 0 12.0796C0 10.6609 0.427273 9.39675 1.28182 8.28724C2.13636 7.17773 3.25455 6.46837 4.63636 6.15916C5.05455 4.68587 5.832 3.44904 6.96873 2.44866C8.10473 1.44828 9.41818 0.838962 10.9091 0.620697V9.43313L9.92727 8.47822C9.72727 8.27814 9.47746 8.1781 9.17782 8.1781C8.87745 8.1781 8.61818 8.28724 8.4 8.5055C8.2 8.70558 8.1 8.96022 8.1 9.26943C8.1 9.57864 8.2 9.83328 8.4 10.0334L11.2364 12.8708C11.4545 13.0891 11.7091 13.1982 12 13.1982C12.2909 13.1982 12.5455 13.0891 12.7636 12.8708L15.6 10.0334C15.8 9.83328 15.9047 9.583 15.9142 9.28252C15.9229 8.98277 15.8182 8.72377 15.6 8.5055C15.4 8.30543 15.1502 8.20066 14.8505 8.1912C14.5502 8.18247 14.2909 8.27814 14.0727 8.47822L13.0909 9.43313V0.620697C14.9636 0.875339 16.5229 1.71639 17.7687 3.14383C19.0138 4.57201 19.6364 6.2501 19.6364 8.1781C20.8909 8.32361 21.932 8.86455 22.7596 9.8009C23.5865 10.738 24 11.834 24 13.0891C24 14.4532 23.5229 15.6129 22.5687 16.5682C21.6138 17.5227 20.4545 18 19.0909 18H6Z" fill="#303042"/>
</svg>
