<svg width="20" height="13" viewBox="0 0 20 13" fill="none" xmlns="http://www.w3.org/2000/svg">
<path d="M10.25 13C14.6818 13 18.4666 10.3047 20 6.5C18.4666 2.69533 14.6818 0 10.25 0C5.81818 0 2.03341 2.69533 0.5 6.5C2.03341 10.3047 5.81818 13 10.25 13ZM10.25 2.16667C12.6964 2.16667 14.6818 4.108 14.6818 6.5C14.6818 8.892 12.6964 10.8333 10.25 10.8333C7.80364 10.8333 5.81818 8.892 5.81818 6.5C5.81818 4.108 7.80364 2.16667 10.25 2.16667ZM10.25 9.1C11.7214 9.1 12.9091 7.93867 12.9091 6.5C12.9091 5.06133 11.7214 3.9 10.25 3.9C8.77864 3.9 7.59091 5.06133 7.59091 6.5C7.59091 7.93867 8.77864 9.1 10.25 9.1Z" fill="#BFBFBF"/>
</svg>
