<svg width="18" height="18" viewBox="0 0 18 18" fill="none" xmlns="http://www.w3.org/2000/svg">
<path d="M5.24995 4.725C5.43329 4.94167 5.52495 5.18767 5.52495 5.463C5.52495 5.73767 5.43329 5.96667 5.24995 6.15L3.39995 8L10.575 8C10.8583 8 11.0956 8.096 11.287 8.288C11.479 8.47933 11.575 8.71667 11.575 9C11.575 9.28333 11.479 9.521 11.287 9.713C11.0956 9.90433 10.8583 10 10.575 10L3.39995 10L5.24995 11.85C5.44995 12.05 5.54995 12.2873 5.54995 12.562C5.54995 12.8373 5.44995 13.075 5.24995 13.275C5.06662 13.475 4.83728 13.575 4.56195 13.575C4.28728 13.575 4.05828 13.4833 3.87495 13.3L0.274953 9.7C0.174952 9.6 0.103951 9.49167 0.0619514 9.375C0.0206173 9.25833 -4.88159e-05 9.13333 -4.88043e-05 9C-4.87926e-05 8.86667 0.0206173 8.74167 0.0619515 8.625C0.103951 8.50833 0.174952 8.4 0.274953 8.3L3.87495 4.7C4.09162 4.48333 4.32895 4.38767 4.58695 4.413C4.84562 4.43767 5.06662 4.54167 5.24995 4.725ZM15.575 -1.74846e-07C16.125 -1.26763e-07 16.596 0.195667 16.988 0.587C17.3793 0.979 17.575 1.45 17.575 2L17.575 16C17.575 16.55 17.3793 17.021 16.988 17.413C16.596 17.8043 16.125 18 15.575 18L9.57495 18C9.29162 18 9.05395 17.9043 8.86195 17.713C8.67062 17.521 8.57495 17.2833 8.57495 17C8.57495 16.7167 8.67062 16.4793 8.86195 16.288C9.05395 16.096 9.29162 16 9.57495 16L15.575 16L15.575 2L9.57495 2C9.29162 2 9.05395 1.904 8.86195 1.712C8.67062 1.52067 8.57495 1.28333 8.57495 0.999999C8.57495 0.716666 8.67062 0.479333 8.86195 0.287999C9.05395 0.0959999 9.29162 -7.24152e-07 9.57495 -6.99382e-07L15.575 -1.74846e-07Z" fill="#303042"/>
</svg>
