<svg width="18" height="26" viewBox="0 0 18 26" fill="none" xmlns="http://www.w3.org/2000/svg">
<path d="M9 25.1033C10.2375 25.1033 11.25 23.9844 11.25 22.6168H6.75C6.75 23.9844 7.7625 25.1033 9 25.1033ZM15.75 17.644V11.4279C15.75 7.61116 13.9163 4.41609 10.6875 3.5707V2.72531C10.6875 1.69343 9.93375 0.860474 9 0.860474C8.06625 0.860474 7.3125 1.69343 7.3125 2.72531V3.5707C4.095 4.41609 2.25 7.59873 2.25 11.4279V17.644L0 20.1304V21.3736H18V20.1304L15.75 17.644ZM13.5 18.8872H4.5V11.4279C4.5 8.34466 6.19875 5.83336 9 5.83336C11.8013 5.83336 13.5 8.34466 13.5 11.4279V18.8872Z" fill="#C6C6C6"/>
</svg>
