<svg width="18" height="18" viewBox="0 0 18 18" fill="none" xmlns="http://www.w3.org/2000/svg">
<path d="M9 9C7.75 9 6.6875 8.5625 5.8125 7.6875C4.9375 6.8125 4.5 5.75 4.5 4.5C4.5 3.25 4.9375 2.1875 5.8125 1.3125C6.6875 0.4375 7.75 0 9 0C10.25 0 11.3125 0.4375 12.1875 1.3125C13.0625 2.1875 13.5 3.25 13.5 4.5C13.5 5.75 13.0625 6.8125 12.1875 7.6875C11.3125 8.5625 10.25 9 9 9ZM0 18V15.15C0 14.625 0.125 14.125 0.375 13.65C0.625 13.175 0.975 12.8 1.425 12.525C2.55 11.85 3.74375 11.3438 5.00625 11.0063C6.26875 10.6688 7.6 10.5 9 10.5C10.4 10.5 11.7313 10.6688 12.9938 11.0063C14.2563 11.3438 15.45 11.85 16.575 12.525C17.025 12.8 17.375 13.175 17.625 13.65C17.875 14.125 18 14.625 18 15.15V18H0Z" fill="#303042"/>
</svg>
