<svg width="24" height="24" viewBox="0 0 24 24" fill="none" xmlns="http://www.w3.org/2000/svg">
<path d="M6.66667 18.6667C7.04444 18.6667 7.36133 18.5387 7.61733 18.2827C7.87245 18.0276 8 17.7111 8 17.3333V10.6667C8 10.2889 7.87245 9.972 7.61733 9.716C7.36133 9.46089 7.04444 9.33333 6.66667 9.33333C6.28889 9.33333 5.972 9.46089 5.716 9.716C5.46089 9.972 5.33333 10.2889 5.33333 10.6667V17.3333C5.33333 17.7111 5.46089 18.0276 5.716 18.2827C5.972 18.5387 6.28889 18.6667 6.66667 18.6667ZM12 18.6667C12.3778 18.6667 12.6947 18.5387 12.9507 18.2827C13.2058 18.0276 13.3333 17.7111 13.3333 17.3333V6.66667C13.3333 6.28889 13.2058 5.972 12.9507 5.716C12.6947 5.46089 12.3778 5.33333 12 5.33333C11.6222 5.33333 11.3058 5.46089 11.0507 5.716C10.7947 5.972 10.6667 6.28889 10.6667 6.66667V17.3333C10.6667 17.7111 10.7947 18.0276 11.0507 18.2827C11.3058 18.5387 11.6222 18.6667 12 18.6667ZM17.3333 18.6667C17.7111 18.6667 18.0276 18.5387 18.2827 18.2827C18.5387 18.0276 18.6667 17.7111 18.6667 17.3333V14.6667C18.6667 14.2889 18.5387 13.972 18.2827 13.716C18.0276 13.4609 17.7111 13.3333 17.3333 13.3333C16.9556 13.3333 16.6391 13.4609 16.384 13.716C16.128 13.972 16 14.2889 16 14.6667V17.3333C16 17.7111 16.128 18.0276 16.384 18.2827C16.6391 18.5387 16.9556 18.6667 17.3333 18.6667ZM2.66667 24C1.93333 24 1.30533 23.7391 0.782667 23.2173C0.260889 22.6947 0 22.0667 0 21.3333V2.66667C0 1.93333 0.260889 1.30533 0.782667 0.782667C1.30533 0.260889 1.93333 0 2.66667 0H21.3333C22.0667 0 22.6947 0.260889 23.2173 0.782667C23.7391 1.30533 24 1.93333 24 2.66667V21.3333C24 22.0667 23.7391 22.6947 23.2173 23.2173C22.6947 23.7391 22.0667 24 21.3333 24H2.66667Z" fill="#303042"/>
</svg>
