<svg width="23" height="24" viewBox="0 0 23 24" fill="none" xmlns="http://www.w3.org/2000/svg">
<path d="M13.7126 24H9.28743C8.99242 24 8.73675 23.9 8.52041 23.7C8.30407 23.5 8.17623 23.25 8.13689 22.95L7.78288 20.16C7.52721 20.06 7.28648 19.94 7.0607 19.8C6.83413 19.66 6.61268 19.51 6.39634 19.35L3.82976 20.43C3.55442 20.53 3.27907 20.54 3.00373 20.46C2.72839 20.38 2.51205 20.21 2.35471 19.95L0.171642 16.08C0.0143035 15.82 -0.0348647 15.54 0.0241371 15.24C0.083139 14.94 0.230644 14.7 0.466651 14.52L2.67922 12.81C2.65955 12.67 2.64972 12.5348 2.64972 12.4044V11.5944C2.64972 11.4648 2.65955 11.33 2.67922 11.19L0.466651 9.48C0.230644 9.3 0.083139 9.06 0.0241371 8.76C-0.0348647 8.46 0.0143035 8.18 0.171642 7.92L2.35471 4.05C2.49238 3.77 2.70361 3.5948 2.98839 3.5244C3.27396 3.4548 3.55442 3.47 3.82976 3.57L6.39634 4.65C6.61268 4.49 6.83885 4.34 7.07486 4.2C7.31087 4.06 7.54688 3.94 7.78288 3.84L8.13689 1.05C8.17623 0.75 8.30407 0.5 8.52041 0.3C8.73675 0.1 8.99242 0 9.28743 0H13.7126C14.0076 0 14.2633 0.1 14.4796 0.3C14.6959 0.5 14.8238 0.75 14.8631 1.05L15.2171 3.84C15.4728 3.94 15.7139 4.06 15.9405 4.2C16.1663 4.34 16.3873 4.49 16.6037 4.65L19.1702 3.57C19.4456 3.47 19.7209 3.46 19.9963 3.54C20.2716 3.62 20.4879 3.79 20.6453 4.05L22.8284 7.92C22.9857 8.18 23.0349 8.46 22.9759 8.76C22.9169 9.06 22.7694 9.3 22.5333 9.48L20.3208 11.19C20.3404 11.33 20.3503 11.4648 20.3503 11.5944V12.4044C20.3503 12.5348 20.3306 12.67 20.2913 12.81L22.5038 14.52C22.7399 14.7 22.8874 14.94 22.9464 15.24C23.0054 15.54 22.9562 15.82 22.7989 16.08L20.6158 19.92C20.4584 20.18 20.2374 20.3552 19.9526 20.4456C19.667 20.5352 19.3866 20.53 19.1112 20.43L16.6037 19.35C16.3873 19.51 16.1611 19.66 15.9251 19.8C15.6891 19.94 15.4531 20.06 15.2171 20.16L14.8631 22.95C14.8238 23.25 14.6959 23.5 14.4796 23.7C14.2633 23.9 14.0076 24 13.7126 24ZM11.559 16.2C12.6997 16.2 13.6732 15.79 14.4796 14.97C15.286 14.15 15.6891 13.16 15.6891 12C15.6891 10.84 15.286 9.85 14.4796 9.03C13.6732 8.21 12.6997 7.8 11.559 7.8C10.3986 7.8 9.41999 8.21 8.62307 9.03C7.82694 9.85 7.42887 10.84 7.42887 12C7.42887 13.16 7.82694 14.15 8.62307 14.97C9.41999 15.79 10.3986 16.2 11.559 16.2Z" fill="#303042"/>
</svg>
