<svg width="94" height="94" viewBox="0 0 94 94" fill="none" xmlns="http://www.w3.org/2000/svg">
<path d="M94 47C94 72.9574 72.9574 94 47 94C21.0426 94 0 72.9574 0 47C0 21.0426 21.0426 0 47 0C72.9574 0 94 21.0426 94 47Z" fill="#0072BC"/>
<path d="M48.379 64.1268C45.9569 64.1282 43.5584 63.6507 41.3214 62.7218C39.0845 61.7929 37.0533 60.4309 35.3445 58.7142C33.6358 56.9975 32.2834 54.9599 31.3649 52.7187C30.4465 50.4774 29.9802 48.0767 29.9929 45.6546C29.9929 36.1799 36.831 29.7053 42.2057 29.9462C39.6254 32.5624 38.1598 36.0771 38.1168 39.7515C38.0945 41.1133 38.3435 42.466 38.8492 43.7306C39.355 44.9953 40.1074 46.1466 41.0626 47.1176C42.0178 48.0885 43.1566 48.8596 44.4128 49.386C45.6691 49.9124 47.0175 50.1835 48.3795 50.1835C49.7415 50.1835 51.0899 49.9124 52.3461 49.386C53.6024 48.8596 54.7412 48.0885 55.6964 47.1176C56.6516 46.1466 57.404 44.9953 57.9098 43.7306C58.4155 42.466 58.6645 41.1133 58.6422 39.7515C58.5981 36.0771 57.1323 32.5628 54.5523 29.9462C59.927 29.7053 66.767 36.1799 66.767 45.6546C66.7796 48.0768 66.3131 50.4776 65.3945 52.719C64.476 54.9603 63.1233 56.9979 61.4144 58.7146C59.7056 60.4313 57.6742 61.7932 55.4371 62.7221C53.2 63.6509 50.8013 64.1283 48.379 64.1268ZM48.379 31.4774C49.6762 32.374 50.7447 33.5626 51.4986 34.9475C52.2526 36.3324 52.6709 37.875 52.7198 39.4511C52.7198 42.1188 50.9588 44.2196 48.379 44.2196C45.7993 44.2196 44.0382 42.1188 44.0382 39.4511C44.0872 37.875 44.5055 36.3324 45.2594 34.9475C46.0134 33.5626 47.0819 32.374 48.379 31.4774ZM54.2831 24C52.2635 23.9998 50.2615 24.375 48.379 25.1063C46.4963 24.3748 44.4939 23.9997 42.4741 24C32.7659 24 24 33.1798 24 45.7736C24 52.2394 26.5685 58.4403 31.1405 63.0122C35.7124 67.5842 41.9133 70.1527 48.379 70.1527C54.8448 70.1527 61.0457 67.5842 65.6176 63.0122C70.1896 58.4403 72.7581 52.2394 72.7581 45.7736C72.7581 33.1798 63.9913 24 54.2831 24Z" fill="white"/>
</svg>
