<svg width="24" height="24" viewBox="0 0 24 24" fill="none" xmlns="http://www.w3.org/2000/svg">
<path d="M2.41814 21.8274C1.75315 21.8274 1.18368 21.5901 0.709723 21.1156C0.236574 20.6402 0 20.0691 0 19.4021V2.42526C0 1.75832 0.236574 1.18717 0.709723 0.711815C1.18368 0.237271 1.75315 0 2.41814 0H19.3451C20.0101 0 20.5795 0.237271 21.0535 0.711815C21.5266 1.18717 21.7632 1.75832 21.7632 2.42526V9.30695C21.199 9.024 20.6098 8.81664 19.9956 8.68487C19.3806 8.5539 18.7607 8.48842 18.136 8.48842C17.5516 8.48842 16.9975 8.5438 16.4736 8.65455C15.9496 8.76611 15.4358 8.92295 14.932 9.12505C14.9924 8.92295 15.038 8.72084 15.0686 8.51874C15.0984 8.31663 15.1133 8.10442 15.1133 7.8821C15.1133 6.70989 14.7003 5.70947 13.8741 4.88084C13.0479 4.05221 12.0504 3.63789 10.8816 3.63789C9.71285 3.63789 8.71536 4.05221 7.88917 4.88084C7.06297 5.70947 6.64987 6.70989 6.64987 7.8821C6.64987 9.05432 7.06297 10.0547 7.88917 10.8834C8.71536 11.712 9.71285 12.1263 10.8816 12.1263H11.1839C10.9219 12.4901 10.6954 12.879 10.5044 13.2929C10.3125 13.7076 10.1461 14.1373 10.005 14.5819C8.51385 14.6829 7.12866 15.0366 5.84947 15.6429C4.56947 16.2493 3.42569 17.0375 2.41814 18.0076V19.4021H10.0353C10.1763 19.8467 10.3375 20.2712 10.5189 20.6754C10.7003 21.0796 10.9219 21.4636 11.1839 21.8274H2.41814ZM16.927 23.04L16.5642 21.2211C16.3224 21.12 16.0959 21.0141 15.8847 20.9033C15.6727 20.7918 15.4559 20.6552 15.2343 20.4935L13.4811 21.0392L12.272 18.9777L13.6625 17.7651C13.6222 17.4821 13.602 17.2194 13.602 16.9768C13.602 16.7343 13.6222 16.4716 13.6625 16.1886L12.272 14.976L13.4811 12.9145L15.2343 13.4602C15.4559 13.2985 15.6727 13.1619 15.8847 13.0503C16.0959 12.9396 16.3224 12.8337 16.5642 12.7326L16.927 10.9137H19.3451L19.7078 12.7326C19.9496 12.8337 20.1765 12.9448 20.3885 13.0661C20.5997 13.1874 20.8161 13.3389 21.0378 13.5208L22.7909 12.9145L24 15.0366L22.6096 16.2493C22.6499 16.4918 22.67 16.7444 22.67 17.0072C22.67 17.2699 22.6499 17.5225 22.6096 17.7651L24 18.9777L22.7909 21.0392L21.0378 20.4935C20.8161 20.6552 20.5997 20.7918 20.3885 20.9033C20.1765 21.0141 19.9496 21.12 19.7078 21.2211L19.3451 23.04H16.927ZM18.136 19.4021C18.801 19.4021 19.3705 19.1648 19.8444 18.6903C20.3176 18.2149 20.5542 17.6438 20.5542 16.9768C20.5542 16.3099 20.3176 15.7387 19.8444 15.2634C19.3705 14.7888 18.801 14.5516 18.136 14.5516C17.471 14.5516 16.9016 14.7888 16.4276 15.2634C15.9545 15.7387 15.7179 16.3099 15.7179 16.9768C15.7179 17.6438 15.9545 18.2149 16.4276 18.6903C16.9016 19.1648 17.471 19.4021 18.136 19.4021Z" fill="#0072BC"/>
</svg>
